<?xml version="1.0" encoding="UTF-8" standalone="no"?>
<svg
   xmlns:dc="http://purl.org/dc/elements/1.1/"
   xmlns:cc="http://creativecommons.org/ns#"
   xmlns:rdf="http://www.w3.org/1999/02/22-rdf-syntax-ns#"
   xmlns:svg="http://www.w3.org/2000/svg"
   xmlns="http://www.w3.org/2000/svg"
   xmlns:sodipodi="http://sodipodi.sourceforge.net/DTD/sodipodi-0.dtd"
   xmlns:inkscape="http://www.inkscape.org/namespaces/inkscape"
   viewBox="0 0 2642.2601 1181.75"
   version="1.2"
   height="118.175mm"
   width="264.22601mm"
   id="svg1622"
   sodipodi:docname="O03_TopCover.svg"
   inkscape:version="1.0.1 (0767f8302a, 2020-10-17)">
  <metadata
     id="metadata1626">
    <rdf:RDF>
      <cc:Work
         rdf:about="">
        <dc:format>image/svg+xml</dc:format>
        <dc:type
           rdf:resource="http://purl.org/dc/dcmitype/StillImage" />
      </cc:Work>
    </rdf:RDF>
  </metadata>
  <sodipodi:namedview
     pagecolor="#ffffff"
     bordercolor="#666666"
     borderopacity="1"
     objecttolerance="10"
     gridtolerance="10"
     guidetolerance="10"
     inkscape:pageopacity="0"
     inkscape:pageshadow="2"
     inkscape:window-width="1920"
     inkscape:window-height="995"
     id="namedview1624"
     showgrid="false"
     inkscape:zoom="0.72610868"
     inkscape:cx="789.31646"
     inkscape:cy="290.46687"
     inkscape:window-x="0"
     inkscape:window-y="0"
     inkscape:window-maximized="1"
     inkscape:current-layer="svg1622"
     inkscape:document-rotation="0" />
  <title
     id="title2">FreeCAD SVG Export</title>
  <desc
     id="desc4">Drawing page: Page exported from FreeCAD document: L32_Squash</desc>
  <defs
     id="defs6" />
  <path
     vector-effect="none"
     d="m 2567.32,341.63 v 752.48 0 c 0,7.01 -5.69,12.7 -12.7,12.7 v 0 H 87.640004 v 0 C 80.63,1106.81 74.94,1101.12 74.94,1094.11 v 0 -752.48 0 c 0,-7.01 5.69,-12.7 12.700004,-12.7 v 0 H 2554.62 v 0 c 7.01,0 12.7,5.69 12.7,12.7 z"
     fill-rule="evenodd"
     id="path1400"
     style="font-style:normal;font-weight:400;font-size:31.75px;font-family:'Sans Serif';fill:none;stroke:#ff0000;stroke-width:7;stroke-linecap:round;stroke-linejoin:bevel;stroke-opacity:1" />
  <path
     vector-effect="none"
     d="M 54.31,3.5 C 26.25,3.5 3.5,26.24 3.5,54.3 v 0 1073.15 0 c 0,28.05 22.75,50.8 50.81,50.8 v 0 h 2533.65 v 0 c 28.05,0 50.8,-22.75 50.8,-50.8 v 0 -1073.15 0 c 0,-28.06 -22.75,-50.8 -50.81,-50.8 v 0 z"
     fill-rule="evenodd"
     id="path1432"
     style="font-style:normal;font-weight:400;font-size:31.75px;font-family:'Sans Serif';fill:none;stroke:#ff0000;stroke-width:7;stroke-linecap:round;stroke-linejoin:bevel;stroke-opacity:1" />
  <path
     vector-effect="none"
     d="m 53.7,1138.56 c 0,5.8 -4.71,10.5 -10.51,10.5 -5.8,0 -10.5,-4.7 -10.5,-10.5 0,-5.8 4.7,-10.5 10.5,-10.5 5.8,0 10.51,4.7 10.51,10.5 z"
     fill-rule="evenodd"
     id="path1464"
     style="font-style:normal;font-weight:400;font-size:31.75px;font-family:'Sans Serif';fill:none;stroke:#0000ff;stroke-width:7;stroke-linecap:round;stroke-linejoin:bevel;stroke-opacity:1" />
  <path
     vector-effect="none"
     d="m 905.65,1138.56 c 0,5.8 -4.7,10.5 -10.5,10.5 -5.8,0 -10.5,-4.7 -10.5,-10.5 0,-5.8 4.7,-10.5 10.5,-10.5 5.8,0 10.5,4.7 10.5,10.5 z"
     fill-rule="evenodd"
     id="path1468"
     style="font-style:normal;font-weight:400;font-size:31.75px;font-family:'Sans Serif';fill:none;stroke:#0000ff;stroke-width:7;stroke-linecap:round;stroke-linejoin:bevel;stroke-opacity:1" />
  <path
     vector-effect="none"
     d="m 1757.61,1138.56 c 0,5.8 -4.7,10.5 -10.5,10.5 -5.8,0 -10.5,-4.7 -10.5,-10.5 0,-5.8 4.7,-10.5 10.5,-10.5 5.8,0 10.5,4.7 10.5,10.5 z"
     fill-rule="evenodd"
     id="path1472"
     style="font-style:normal;font-weight:400;font-size:31.75px;font-family:'Sans Serif';fill:none;stroke:#0000ff;stroke-width:7;stroke-linecap:round;stroke-linejoin:bevel;stroke-opacity:1" />
  <path
     vector-effect="none"
     d="m 2609.57,1138.56 c 0,5.8 -4.7,10.5 -10.5,10.5 -5.8,0 -10.51,-4.7 -10.51,-10.5 0,-5.8 4.71,-10.5 10.51,-10.5 5.8,0 10.5,4.7 10.5,10.5 z"
     fill-rule="evenodd"
     id="path1476"
     style="font-style:normal;font-weight:400;font-size:31.75px;font-family:'Sans Serif';fill:none;stroke:#0000ff;stroke-width:7;stroke-linecap:round;stroke-linejoin:bevel;stroke-opacity:1" />
  <path
     vector-effect="none"
     d="m 53.7,43.18 c 0,5.8 -4.71,10.5 -10.51,10.5 -5.8,0 -10.5,-4.7 -10.5,-10.5 0,-5.8 4.7,-10.5 10.5,-10.5 5.8,0 10.51,4.7 10.51,10.5 z"
     fill-rule="evenodd"
     id="path1480"
     style="font-style:normal;font-weight:400;font-size:31.75px;font-family:'Sans Serif';fill:none;stroke:#0000ff;stroke-width:7;stroke-linecap:round;stroke-linejoin:bevel;stroke-opacity:1" />
  <path
     vector-effect="none"
     d="m 905.65,43.18 c 0,5.8 -4.7,10.5 -10.5,10.5 -5.8,0 -10.5,-4.7 -10.5,-10.5 0,-5.8 4.7,-10.5 10.5,-10.5 5.8,0 10.5,4.7 10.5,10.5 z"
     fill-rule="evenodd"
     id="path1484"
     style="font-style:normal;font-weight:400;font-size:31.75px;font-family:'Sans Serif';fill:none;stroke:#0000ff;stroke-width:7;stroke-linecap:round;stroke-linejoin:bevel;stroke-opacity:1" />
  <path
     vector-effect="none"
     d="m 1757.61,43.18 c 0,5.8 -4.7,10.5 -10.5,10.5 -5.8,0 -10.5,-4.7 -10.5,-10.5 0,-5.8 4.7,-10.5 10.5,-10.5 5.8,0 10.5,4.7 10.5,10.5 z"
     fill-rule="evenodd"
     id="path1488"
     style="font-style:normal;font-weight:400;font-size:31.75px;font-family:'Sans Serif';fill:none;stroke:#0000ff;stroke-width:7;stroke-linecap:round;stroke-linejoin:bevel;stroke-opacity:1" />
  <path
     vector-effect="none"
     d="m 2380.38,197.17 c 0,41.42 -33.58,75 -75,75 -41.42,0 -75,-33.58 -75,-75 0,-41.42 33.58,-75 75,-75 41.42,0 75,33.58 75,75 z"
     fill-rule="evenodd"
     id="path1492"
     style="font-style:normal;font-weight:400;font-size:31.75px;font-family:'Sans Serif';fill:none;stroke:#0000ff;stroke-width:7;stroke-linecap:round;stroke-linejoin:bevel;stroke-opacity:1" />
  <path
     vector-effect="none"
     d="m 2609.57,43.18 c 0,5.8 -4.7,10.5 -10.5,10.5 -5.8,0 -10.51,-4.7 -10.51,-10.5 0,-5.8 4.71,-10.5 10.51,-10.5 5.8,0 10.5,4.7 10.5,10.5 z"
     fill-rule="evenodd"
     id="path1496"
     style="font-style:normal;font-weight:400;font-size:31.75px;font-family:'Sans Serif';fill:none;stroke:#0000ff;stroke-width:7;stroke-linecap:round;stroke-linejoin:bevel;stroke-opacity:1" />
</svg>
