<?xml version="1.0" encoding="UTF-8" standalone="no"?>
<svg
   xmlns:dc="http://purl.org/dc/elements/1.1/"
   xmlns:cc="http://creativecommons.org/ns#"
   xmlns:rdf="http://www.w3.org/1999/02/22-rdf-syntax-ns#"
   xmlns:svg="http://www.w3.org/2000/svg"
   xmlns="http://www.w3.org/2000/svg"
   xmlns:sodipodi="http://sodipodi.sourceforge.net/DTD/sodipodi-0.dtd"
   xmlns:inkscape="http://www.inkscape.org/namespaces/inkscape"
   viewBox="0 0 2642.2601 1181.75"
   version="1.2"
   height="118.175mm"
   width="264.22601mm"
   id="svg1622"
   sodipodi:docname="Q45_OLEDCover.svg"
   inkscape:version="1.0.1 (0767f8302a, 2020-10-17)">
  <metadata
     id="metadata1626">
    <rdf:RDF>
      <cc:Work
         rdf:about="">
        <dc:format>image/svg+xml</dc:format>
        <dc:type
           rdf:resource="http://purl.org/dc/dcmitype/StillImage" />
      </cc:Work>
    </rdf:RDF>
  </metadata>
  <sodipodi:namedview
     pagecolor="#ffffff"
     bordercolor="#666666"
     borderopacity="1"
     objecttolerance="10"
     gridtolerance="10"
     guidetolerance="10"
     inkscape:pageopacity="0"
     inkscape:pageshadow="2"
     inkscape:window-width="1920"
     inkscape:window-height="968"
     id="namedview1624"
     showgrid="false"
     inkscape:zoom="1.4522174"
     inkscape:cx="314.28175"
     inkscape:cy="24.05401"
     inkscape:window-x="1920"
     inkscape:window-y="27"
     inkscape:window-maximized="1"
     inkscape:current-layer="svg1622"
     inkscape:document-rotation="0" />
  <title
     id="title2">FreeCAD SVG Export</title>
  <desc
     id="desc4">Drawing page: Page exported from FreeCAD document: L32_Squash</desc>
  <defs
     id="defs6" />
  <path
     vector-effect="none"
     d="m 465.14272,164.26283 v 74.16634 0 c 0,4.37507 -3.66198,7.93106 -8.17918,7.93106 v 0 H 228.96551 v 0 c -4.52338,0 -8.18124,-3.55599 -8.18124,-7.93106 v 0 -74.16634 0 c 0,-4.38506 3.65786,-7.93106 8.18124,-7.93106 v 0 h 227.99803 v 0 c 4.5172,0 8.17918,3.546 8.17918,7.93106 z"
     fill-rule="evenodd"
     id="path1268"
     style="font-style:normal;font-weight:400;font-size:31.75px;font-family:'Sans Serif';fill:none;stroke:#0000ff;stroke-width:7.10154;stroke-linecap:round;stroke-linejoin:bevel;stroke-opacity:1" />
  <path
     vector-effect="none"
     d="M 54.31,3.5 C 26.25,3.5 3.5,26.25 3.5,54.3 v 0 1073.16 -0.01 c 0,28.06 22.75,50.8 50.81,50.8 v 0 h 2533.65 v 0 c 28.05,0 50.8,-22.74 50.8,-50.8 v 0.01 -1073.16 0 c 0,-28.05 -22.75,-50.8 -50.81,-50.8 v 0 z"
     fill-rule="evenodd"
     id="path1300"
     style="font-style:normal;font-weight:400;font-size:31.75px;font-family:'Sans Serif';fill:none;stroke:#ff0000;stroke-width:7;stroke-linecap:round;stroke-linejoin:bevel;stroke-opacity:1" />
  <path
     vector-effect="none"
     d="m 58.69,1138.57 c 0,8.55 -6.94,15.49 -15.5,15.49 -8.55,0 -15.49,-6.94 -15.49,-15.49 0,-8.56 6.94,-15.5 15.49,-15.5 8.56,0 15.5,6.94 15.5,15.5 z"
     fill-rule="evenodd"
     id="path1332"
     style="font-style:normal;font-weight:400;font-size:31.75px;font-family:'Sans Serif';fill:none;stroke:#0000ff;stroke-width:7;stroke-linecap:round;stroke-linejoin:bevel;stroke-opacity:1" />
  <path
     vector-effect="none"
     d="m 910.64,1138.57 c 0,8.55 -6.93,15.49 -15.49,15.49 -8.56,0 -15.49,-6.94 -15.49,-15.49 0,-8.56 6.93,-15.5 15.49,-15.5 8.56,0 15.49,6.94 15.49,15.5 z"
     fill-rule="evenodd"
     id="path1336"
     style="font-style:normal;font-weight:400;font-size:31.75px;font-family:'Sans Serif';fill:none;stroke:#0000ff;stroke-width:7;stroke-linecap:round;stroke-linejoin:bevel;stroke-opacity:1" />
  <path
     vector-effect="none"
     d="m 1762.6,1138.57 c 0,8.55 -6.93,15.49 -15.49,15.49 -8.56,0 -15.49,-6.94 -15.49,-15.49 0,-8.56 6.93,-15.5 15.49,-15.5 8.56,0 15.49,6.94 15.49,15.5 z"
     fill-rule="evenodd"
     id="path1340"
     style="font-style:normal;font-weight:400;font-size:31.75px;font-family:'Sans Serif';fill:none;stroke:#0000ff;stroke-width:7;stroke-linecap:round;stroke-linejoin:bevel;stroke-opacity:1" />
  <path
     vector-effect="none"
     d="m 2614.56,1138.57 c 0,8.55 -6.94,15.49 -15.49,15.49 -8.56,0 -15.5,-6.94 -15.5,-15.49 0,-8.56 6.94,-15.5 15.5,-15.5 8.55,0 15.49,6.94 15.49,15.5 z"
     fill-rule="evenodd"
     id="path1344"
     style="font-style:normal;font-weight:400;font-size:31.75px;font-family:'Sans Serif';fill:none;stroke:#0000ff;stroke-width:7;stroke-linecap:round;stroke-linejoin:bevel;stroke-opacity:1" />
  <path
     vector-effect="none"
     d="m 2567.32,341.64 v 752.48 0 c 0,7.01 -5.69,12.7 -12.7,12.7 v 0 H 87.640004 v 0 C 80.63,1106.82 74.94,1101.13 74.94,1094.12 v 0 -752.48 0 c 0,-7.01 5.69,-12.7 12.700004,-12.7 v 0 H 2554.62 v 0 c 7.01,0 12.7,5.69 12.7,12.7 z"
     fill-rule="evenodd"
     id="path1348"
     style="font-style:normal;font-weight:400;font-size:31.75px;font-family:'Sans Serif';fill:none;stroke:#ff0000;stroke-width:7;stroke-linecap:round;stroke-linejoin:bevel;stroke-opacity:1" />
  <path
     vector-effect="none"
     d="m 58.69,43.19 c 0,8.56 -6.94,15.5 -15.5,15.5 -8.55,0 -15.49,-6.94 -15.49,-15.5 0,-8.56 6.94,-15.49 15.49,-15.49 8.56,0 15.5,6.93 15.5,15.49 z"
     fill-rule="evenodd"
     id="path1380"
     style="font-style:normal;font-weight:400;font-size:31.75px;font-family:'Sans Serif';fill:none;stroke:#0000ff;stroke-width:7;stroke-linecap:round;stroke-linejoin:bevel;stroke-opacity:1" />
  <path
     vector-effect="none"
     d="m 910.64,43.19 c 0,8.56 -6.93,15.5 -15.49,15.5 -8.56,0 -15.49,-6.94 -15.49,-15.5 0,-8.56 6.93,-15.49 15.49,-15.49 8.56,0 15.49,6.93 15.49,15.49 z"
     fill-rule="evenodd"
     id="path1384"
     style="font-style:normal;font-weight:400;font-size:31.75px;font-family:'Sans Serif';fill:none;stroke:#0000ff;stroke-width:7;stroke-linecap:round;stroke-linejoin:bevel;stroke-opacity:1" />
  <path
     vector-effect="none"
     d="m 1762.6,43.19 c 0,8.56 -6.93,15.5 -15.49,15.5 -8.56,0 -15.49,-6.94 -15.49,-15.5 0,-8.56 6.93,-15.49 15.49,-15.49 8.56,0 15.49,6.93 15.49,15.49 z"
     fill-rule="evenodd"
     id="path1388"
     style="font-style:normal;font-weight:400;font-size:31.75px;font-family:'Sans Serif';fill:none;stroke:#0000ff;stroke-width:7;stroke-linecap:round;stroke-linejoin:bevel;stroke-opacity:1" />
  <path
     vector-effect="none"
     d="m 2341.38,197.18 c 0,19.88 -16.12,36 -36,36 -19.88,0 -36,-16.12 -36,-36 0,-19.88 16.12,-36 36,-36 19.88,0 36,16.12 36,36 z"
     fill-rule="evenodd"
     id="path1392"
     style="font-style:normal;font-weight:400;font-size:31.75px;font-family:'Sans Serif';fill:none;stroke:#0000ff;stroke-width:7;stroke-linecap:round;stroke-linejoin:bevel;stroke-opacity:1" />
  <path
     vector-effect="none"
     d="m 2614.56,43.19 c 0,8.56 -6.94,15.5 -15.49,15.5 -8.56,0 -15.5,-6.94 -15.5,-15.5 0,-8.56 6.94,-15.49 15.5,-15.49 8.55,0 15.49,6.93 15.49,15.49 z"
     fill-rule="evenodd"
     id="path1396"
     style="font-style:normal;font-weight:400;font-size:31.75px;font-family:'Sans Serif';fill:none;stroke:#0000ff;stroke-width:7;stroke-linecap:round;stroke-linejoin:bevel;stroke-opacity:1" />
</svg>
