<?xml version="1.0" encoding="UTF-8" standalone="no"?>
<svg
   xmlns:dc="http://purl.org/dc/elements/1.1/"
   xmlns:cc="http://creativecommons.org/ns#"
   xmlns:rdf="http://www.w3.org/1999/02/22-rdf-syntax-ns#"
   xmlns:svg="http://www.w3.org/2000/svg"
   xmlns="http://www.w3.org/2000/svg"
   xmlns:sodipodi="http://sodipodi.sourceforge.net/DTD/sodipodi-0.dtd"
   xmlns:inkscape="http://www.inkscape.org/namespaces/inkscape"
   viewBox="0 0 2642.2601 1181.75"
   version="1.2"
   height="4.6525593in"
   width="10.402599in"
   id="svg1622"
   sodipodi:docname="S86_SwitchPlate.svg"
   inkscape:version="1.0.1 (0767f8302a, 2020-10-17)">
  <metadata
     id="metadata1626">
    <rdf:RDF>
      <cc:Work
         rdf:about="">
        <dc:format>image/svg+xml</dc:format>
        <dc:type
           rdf:resource="http://purl.org/dc/dcmitype/StillImage" />
        <dc:title>FreeCAD SVG Export</dc:title>
      </cc:Work>
    </rdf:RDF>
  </metadata>
  <sodipodi:namedview
     pagecolor="#ffffff"
     bordercolor="#666666"
     borderopacity="1"
     objecttolerance="10"
     gridtolerance="10"
     guidetolerance="10"
     inkscape:pageopacity="0"
     inkscape:pageshadow="2"
     inkscape:window-width="1920"
     inkscape:window-height="968"
     id="namedview1624"
     showgrid="false"
     inkscape:zoom="1.0268727"
     inkscape:cx="560.84748"
     inkscape:cy="229.3718"
     inkscape:window-x="1920"
     inkscape:window-y="27"
     inkscape:window-maximized="1"
     inkscape:current-layer="layer2"
     inkscape:document-rotation="0"
     inkscape:document-units="in"
     units="in" />
  <title
     id="title2">FreeCAD SVG Export</title>
  <desc
     id="desc4">Drawing page: Page exported from FreeCAD document: L32_Squash</desc>
  <defs
     id="defs6" />
  <g
     inkscape:groupmode="layer"
     id="layer8"
     inkscape:label="outline"
     style="display:inline">
    <path
       vector-effect="none"
       d="M 54.31,3.5 C 26.25,3.5 3.5,26.25 3.5,54.3 v 0 1073.16 -0.01 c 0,28.06 22.75,50.8 50.81,50.8 v 0 h 2533.65 v 0 c 28.05,0 50.8,-22.74 50.8,-50.8 v 0.01 -1073.16 0 c 0,-28.05 -22.75,-50.8 -50.81,-50.8 v 0 h -371.47 v 0 79.38 0 h 292.1 v 0 c 28.06,0 50.8,22.74 50.8,50.8 v 0 127 0 c 0,28.06 -22.74,50.8 -50.8,50.8 v 0 h -390.53 0.01 c -28.06,0 -50.8,-22.74 -50.8,-50.8 v 0 -177.8 0 -79.38 0 z"
       fill-rule="evenodd"
       id="path280"
       style="font-style:normal;font-weight:400;font-size:31.75px;font-family:'Sans Serif';fill:none;stroke:#ff0000;stroke-width:7;stroke-linecap:round;stroke-linejoin:bevel;stroke-opacity:1" />
  </g>
  <g
     inkscape:groupmode="layer"
     id="layer2"
     inkscape:label="keys_0"
     style="display:inline">
    <path
       id="path560"
       style="font-style:normal;font-weight:400;font-size:31.75px;font-family:'Sans Serif';fill:none;stroke:#0000ff;stroke-width:7;stroke-linecap:round;stroke-linejoin:bevel;stroke-opacity:1"
       d="m 579.91406,553.00391 c -5.81918,0.0684 -11.65012,0.01 -17.47383,0.0293 -39.88828,0 -79.77656,0 -119.66484,0 -0.38365,0.44989 -1.0719,0.7736 -0.86719,1.46719 0,45.61771 0,91.23542 0,136.85313 0.42573,0.37741 0.78045,1.0888 1.46133,0.87304 45.61966,0 91.23932,0 136.85899,0 0.37741,-0.42572 1.0888,-0.78045 0.87304,-1.46133 0,-45.61966 0,-91.23932 0,-136.85898 -0.38576,-0.29477 -0.63446,-0.91518 -1.1875,-0.90234 z" />
    <path
       id="path592"
       style="font-style:normal;font-weight:400;font-size:31.75px;font-family:'Sans Serif';fill:none;stroke:#0000ff;stroke-width:7;stroke-linecap:round;stroke-linejoin:bevel;stroke-opacity:1"
       d="m 1056.1582,743.50391 c -5.8192,0.0684 -11.6501,0.01 -17.4738,0.0293 -39.88766,0 -79.77529,0 -119.66292,0 -0.38364,0.44989 -1.0719,0.7736 -0.86718,1.46719 0,45.61771 0,91.23542 0,136.85313 0.42572,0.37741 0.78045,1.0888 1.46133,0.87304 45.61901,0 91.23797,0 136.85707,0 0.3774,-0.42572 1.0888,-0.78045 0.873,-1.46133 0,-45.61966 0,-91.23932 0,-136.85898 -0.3858,-0.29477 -0.6345,-0.91518 -1.1875,-0.90234 z" />
    <path
       id="path816"
       style="font-style:normal;font-weight:400;font-size:31.75px;font-family:'Sans Serif';fill:none;stroke:#0000ff;stroke-width:7;stroke-linecap:round;stroke-linejoin:bevel;stroke-opacity:1"
       d="m 1627.6582,743.50391 c -5.8192,0.0684 -11.6501,0.01 -17.4738,0.0293 -39.8877,0 -79.7753,0 -119.6629,0 -0.3837,0.44989 -1.0719,0.7736 -0.8672,1.46719 0,45.61771 0,91.23542 0,136.85313 0.4257,0.37741 0.7804,1.0888 1.4613,0.87304 45.619,0 91.238,0 136.8571,0 0.3774,-0.42572 1.0888,-0.78045 0.873,-1.46133 0,-45.61966 0,-91.23932 0,-136.85898 -0.3858,-0.29477 -0.6345,-0.91518 -1.1875,-0.90234 z" />
    <path
       id="path848"
       style="font-style:normal;font-weight:400;font-size:31.75px;font-family:'Sans Serif';fill:none;stroke:#0000ff;stroke-width:7;stroke-linecap:round;stroke-linejoin:bevel;stroke-opacity:1"
       d="m 2008.6582,743.50391 c -5.8192,0.0684 -11.6501,0.01 -17.4738,0.0293 -39.8877,0 -79.7753,0 -119.6629,0 -0.3837,0.44989 -1.0719,0.7736 -0.8672,1.46719 0,45.61771 0,91.23542 0,136.85313 0.4257,0.37741 0.7804,1.0888 1.4613,0.87304 45.619,0 91.238,0 136.8571,0 0.3774,-0.42572 1.0888,-0.78045 0.873,-1.46133 0,-45.61966 0,-91.23932 0,-136.85898 -0.3858,-0.29477 -0.6345,-0.91518 -1.1875,-0.90234 z" />
    <path
       id="path1120"
       style="font-style:normal;font-weight:400;font-size:31.75px;font-family:'Sans Serif';fill:none;stroke:#0000ff;stroke-width:7;stroke-linecap:round;stroke-linejoin:bevel;stroke-opacity:1"
       d="m 1484.7891,362.50391 c -5.8192,0.0684 -11.6502,0.01 -17.4739,0.0293 -39.8882,0 -79.7765,0 -119.6648,0 -0.3837,0.44989 -1.0719,0.7736 -0.8672,1.46719 0,45.61771 0,91.23542 0,136.85313 0.4257,0.37741 0.7805,1.0888 1.4613,0.87304 45.6197,0 91.2394,0 136.859,0 0.3774,-0.42572 1.0888,-0.78045 0.8731,-1.46133 0,-45.61966 0,-91.23932 0,-136.85898 -0.3858,-0.29477 -0.6345,-0.91518 -1.1875,-0.90234 z" />
    <path
       id="path1152"
       style="font-style:normal;font-weight:400;font-size:31.75px;font-family:'Sans Serif';fill:none;stroke:#0000ff;stroke-width:7;stroke-linecap:round;stroke-linejoin:bevel;stroke-opacity:1"
       d="m 1865.7891,362.50391 c -5.8192,0.0684 -11.6502,0.01 -17.4739,0.0293 -39.8882,0 -79.7765,0 -119.6648,0 -0.3837,0.44989 -1.0719,0.7736 -0.8672,1.46719 0,45.61771 0,91.23542 0,136.85313 0.4257,0.37741 0.7805,1.0888 1.4613,0.87304 45.6197,0 91.2394,0 136.859,0 0.3774,-0.42572 1.0888,-0.78045 0.8731,-1.46133 0,-45.61966 0,-91.23932 0,-136.85898 -0.3858,-0.29477 -0.6345,-0.91518 -1.1875,-0.90234 z" />
    <path
       id="path1184"
       style="font-style:normal;font-weight:400;font-size:31.75px;font-family:'Sans Serif';fill:none;stroke:#0000ff;stroke-width:7;stroke-linecap:round;stroke-linejoin:bevel;stroke-opacity:1"
       d="m 2246.7891,362.50391 c -5.8192,0.0684 -11.6502,0.01 -17.4739,0.0293 -39.8882,0 -79.7765,0 -119.6648,0 -0.3837,0.44989 -1.0719,0.7736 -0.8672,1.46719 0,45.61771 0,91.23542 0,136.85313 0.4257,0.37741 0.7805,1.0888 1.4613,0.87304 45.6197,0 91.2394,0 136.859,0 0.3774,-0.42572 1.0888,-0.78045 0.8731,-1.46133 0,-45.61966 0,-91.23932 0,-136.85898 -0.3858,-0.29477 -0.6345,-0.91518 -1.1875,-0.90234 z" />
  </g>
  <g
     inkscape:groupmode="layer"
     id="layer3"
     inkscape:label="keys_1"
     style="display:inline">
    <path
       id="path388"
       style="font-style:normal;font-weight:400;font-size:31.75px;font-family:'Sans Serif';fill:none;stroke:#0000ff;stroke-width:7;stroke-linecap:round;stroke-linejoin:bevel;stroke-opacity:1"
       d="m 698.97656,934.00391 c -5.81918,0.0684 -11.65012,0.01 -17.47383,0.0293 -47.82578,0 -95.65156,0 -143.47734,0 -0.38365,0.44989 -1.0719,0.7736 -0.86719,1.46719 0,45.61771 0,91.2354 0,136.8531 0.42573,0.3774 0.78045,1.0888 1.46133,0.8731 53.55716,0 107.11432,0 160.67149,0 0.37741,-0.4258 1.0888,-0.7805 0.87304,-1.4614 0,-45.6196 0,-91.23928 0,-136.85894 -0.38576,-0.29477 -0.63446,-0.91518 -1.1875,-0.90234 z" />
    <path
       id="path464"
       style="font-style:normal;font-weight:400;font-size:31.75px;font-family:'Sans Serif';fill:none;stroke:#0000ff;stroke-width:7;stroke-linecap:round;stroke-linejoin:bevel;stroke-opacity:1"
       d="m 1365.7285,934.00391 c -5.8192,0.0684 -11.6501,0.01 -17.4738,0.0293 -47.8277,0 -95.6555,0 -143.4832,0 -0.3837,0.44989 -1.0719,0.7736 -0.8672,1.46719 0,45.61771 0,91.2354 0,136.8531 0.4257,0.3774 0.7804,1.0888 1.4613,0.8731 53.5591,0 107.1183,0 160.6774,0 0.3774,-0.4258 1.0888,-0.7805 0.873,-1.4614 0,-45.6196 0,-91.23928 0,-136.85894 -0.3857,-0.29477 -0.6345,-0.91518 -1.1875,-0.90234 z" />
    <path
       id="path656"
       style="font-style:normal;font-weight:400;font-size:31.75px;font-family:'Sans Serif';fill:none;stroke:#0000ff;stroke-width:7;stroke-linecap:round;stroke-linejoin:bevel;stroke-opacity:1"
       d="m 1151.4082,553.00391 c -5.8192,0.0684 -11.6501,0.01 -17.4738,0.0293 -39.8877,0 -79.7753,0 -119.6629,0 -0.3837,0.44989 -1.0719,0.7736 -0.8672,1.46719 0,45.61771 0,91.23542 0,136.85313 0.4257,0.37741 0.7804,1.0888 1.4613,0.87304 45.619,0 91.238,0 136.8571,0 0.3774,-0.42572 1.0888,-0.78045 0.873,-1.46133 0,-45.61966 0,-91.23932 0,-136.85898 -0.3858,-0.29477 -0.6345,-0.91518 -1.1875,-0.90234 z" />
    <path
       id="path752"
       style="font-style:normal;font-weight:400;font-size:31.75px;font-family:'Sans Serif';fill:none;stroke:#0000ff;stroke-width:7;stroke-linecap:round;stroke-linejoin:bevel;stroke-opacity:1"
       d="m 2080.0977,934.00391 c -5.8192,0.0684 -11.6502,0.01 -17.4739,0.0293 -39.8876,0 -79.7752,0 -119.6629,0 -0.3836,0.44989 -1.0719,0.7736 -0.8671,1.46719 0,45.61771 -1e-4,91.2354 0,136.8531 0.4257,0.3774 0.7804,1.0888 1.4613,0.8731 45.619,0 91.238,0 136.857,0 0.3774,-0.4258 1.0888,-0.7805 0.8731,-1.4614 0,-45.6196 0,-91.23928 0,-136.85894 -0.3858,-0.29477 -0.6345,-0.91518 -1.1875,-0.90234 z" />
    <path
       id="path864"
       style="font-style:normal;font-weight:400;font-size:31.75px;font-family:'Sans Serif';fill:none;stroke:#0000ff;stroke-width:7;stroke-linecap:round;stroke-linejoin:bevel;stroke-opacity:1"
       d="m 1532.4082,553.00391 c -5.8192,0.0684 -11.6501,0.01 -17.4738,0.0293 -39.8877,0 -79.7753,0 -119.6629,0 -0.3837,0.44989 -1.0719,0.7736 -0.8672,1.46719 0,45.61771 0,91.23542 0,136.85313 0.4257,0.37741 0.7804,1.0888 1.4613,0.87304 45.619,0 91.238,0 136.8571,0 0.3774,-0.42572 1.0888,-0.78045 0.873,-1.46133 0,-45.61966 0,-91.23932 0,-136.85898 -0.3858,-0.29477 -0.6345,-0.91518 -1.1875,-0.90234 z" />
    <path
       id="path928"
       style="font-style:normal;font-weight:400;font-size:31.75px;font-family:'Sans Serif';fill:none;stroke:#0000ff;stroke-width:7;stroke-linecap:round;stroke-linejoin:bevel;stroke-opacity:1"
       d="m 2461.0977,743.50391 c -5.8192,0.0684 -11.6502,0.01 -17.4739,0.0293 -39.8876,0 -79.7752,0 -119.6629,0 -0.3836,0.44989 -1.0719,0.7736 -0.8671,1.46719 0,45.61771 0,91.23542 0,136.85313 0.4257,0.37741 0.7804,1.0888 1.4613,0.87304 45.619,0 91.238,0 136.857,0 0.3774,-0.42572 1.0888,-0.78045 0.8731,-1.46133 0,-45.61966 0,-91.23932 0,-136.85898 -0.3858,-0.29477 -0.6345,-0.91518 -1.1875,-0.90234 z" />
    <path
       id="path944"
       style="font-style:normal;font-weight:400;font-size:31.75px;font-family:'Sans Serif';fill:none;stroke:#0000ff;stroke-width:7;stroke-linecap:round;stroke-linejoin:bevel;stroke-opacity:1"
       d="m 2103.9082,553.00391 c -5.8192,0.0684 -11.6501,0.01 -17.4738,0.0293 -39.8844,0 -79.7688,0 -119.6532,0 -0.3836,0.44989 -1.0719,0.7736 -0.8671,1.46719 0,45.61771 0,91.23542 0,136.85313 0.4257,0.37741 0.7804,1.0888 1.4613,0.87304 45.6157,0 91.2315,0 136.8473,0 0.3774,-0.42572 1.0888,-0.78045 0.873,-1.46133 0,-45.61966 0,-91.23932 0,-136.85898 -0.3858,-0.29477 -0.6345,-0.91518 -1.1875,-0.90234 z" />
    <path
       id="path1064"
       style="font-style:normal;font-weight:400;font-size:31.75px;font-family:'Sans Serif';fill:none;stroke:#0000ff;stroke-width:7;stroke-linecap:round;stroke-linejoin:bevel;stroke-opacity:1"
       d="m 913.28906,362.50391 c -5.81918,0.0684 -11.65012,0.01 -17.47383,0.0293 -39.88828,0 -79.77656,0 -119.66484,0 -0.38365,0.44989 -1.0719,0.7736 -0.86719,1.46719 0,45.61771 0,91.23542 0,136.85313 0.42573,0.37741 0.78045,1.0888 1.46133,0.87304 45.61966,0 91.23932,0 136.85899,0 0.37741,-0.42572 1.0888,-0.78045 0.87304,-1.46133 0,-45.61966 0,-91.23932 0,-136.85898 -0.38576,-0.29477 -0.63446,-0.91518 -1.1875,-0.90234 z" />
  </g>
  <g
     inkscape:groupmode="layer"
     id="layer4"
     inkscape:label="keys_2"
     style="display:inline">
    <path
       id="path480"
       style="font-style:normal;font-weight:400;font-size:31.75px;font-family:'Sans Serif';fill:none;stroke:#0000ff;stroke-width:7;stroke-linecap:round;stroke-linejoin:bevel;stroke-opacity:1"
       d="m 484.66406,743.50391 c -5.81918,0.0684 -11.65012,0.01 -17.47383,0.0293 -111.32643,0 -222.65286,0 -333.97929,0 -0.38365,0.44989 -1.0719,0.7736 -0.86719,1.46719 0,45.61771 0,91.23542 0,136.85313 0.42572,0.37741 0.78045,1.0888 1.46133,0.87304 2.69562,0.0288 5.40844,-0.0575 8.09336,0.043 0.90787,0.52259 0.42868,1.69201 0.54492,2.52578 0,5.5194 0,11.0388 0,16.55821 0.42572,0.37741 0.78045,1.0888 1.46133,0.87304 22.38593,0 44.77187,0 67.15781,0 0.37741,-0.42572 1.0888,-0.78045 0.87305,-1.46133 0,-5.95104 0,-11.90208 0,-17.85312 0.31662,-0.98161 1.4999,-0.63396 2.26875,-0.68555 55.85247,0 111.70494,0 167.55742,0 0.98161,0.31662 0.63395,1.4999 0.68555,2.26875 0,5.6194 0,11.2388 0,16.85821 0.42572,0.37741 0.78045,1.0888 1.46132,0.87304 22.38594,0 44.77188,0 67.15782,0 0.37741,-0.42572 1.0888,-0.78045 0.87304,-1.46133 0,-5.95104 0,-11.90208 0,-17.85312 0.31662,-0.98161 1.4999,-0.63396 2.26875,-0.68555 10.25677,0 20.51354,0 30.77032,0 0.37741,-0.42572 1.0888,-0.78045 0.87304,-1.46133 0,-45.61966 0,-91.23932 0,-136.85898 -0.38576,-0.29477 -0.63446,-0.91518 -1.1875,-0.90234 z" />
    <path
       id="path576"
       style="font-style:normal;font-weight:400;font-size:31.75px;font-family:'Sans Serif';fill:none;stroke:#0000ff;stroke-width:7;stroke-linecap:round;stroke-linejoin:bevel;stroke-opacity:1"
       d="m 865.6582,743.50391 c -5.81918,0.0684 -11.65012,0.01 -17.47382,0.0293 -39.88633,0 -79.77266,0 -119.65899,0 -0.38365,0.44989 -1.0719,0.7736 -0.86719,1.46719 0,45.61771 0,91.23542 0,136.85313 0.42573,0.37741 0.78045,1.0888 1.46133,0.87304 45.61771,0 91.23542,0 136.85313,0 0.37741,-0.42572 1.0888,-0.78045 0.87304,-1.46133 0,-45.61966 0,-91.23932 0,-136.85898 -0.38576,-0.29477 -0.63446,-0.91518 -1.1875,-0.90234 z" />
    <path
       id="path800"
       style="font-style:normal;font-weight:400;font-size:31.75px;font-family:'Sans Serif';fill:none;stroke:#0000ff;stroke-width:7;stroke-linecap:round;stroke-linejoin:bevel;stroke-opacity:1"
       d="m 1437.1582,743.50391 c -5.8192,0.0684 -11.6501,0.01 -17.4738,0.0293 -39.8877,0 -79.7753,0 -119.6629,0 -0.3837,0.44989 -1.0719,0.7736 -0.8672,1.46719 0,45.61771 0,91.23542 0,136.85313 0.4257,0.37741 0.7804,1.0888 1.4613,0.87304 45.619,0 91.238,0 136.8571,0 0.3774,-0.42572 1.0888,-0.78045 0.873,-1.46133 0,-45.61966 0,-91.23932 0,-136.85898 -0.3858,-0.29477 -0.6345,-0.91518 -1.1875,-0.90234 z" />
    <path
       id="path896"
       style="font-style:normal;font-weight:400;font-size:31.75px;font-family:'Sans Serif';fill:none;stroke:#0000ff;stroke-width:7;stroke-linecap:round;stroke-linejoin:bevel;stroke-opacity:1"
       d="m 1913.4082,553.00391 c -5.8192,0.0684 -11.6501,0.01 -17.4738,0.0293 -39.8877,0 -79.7753,0 -119.6629,0 -0.3837,0.44989 -1.0719,0.7736 -0.8672,1.46719 0,45.61771 0,91.23542 0,136.85313 0.4257,0.37741 0.7804,1.0888 1.4613,0.87304 45.619,0 91.238,0 136.8571,0 0.3774,-0.42572 1.0888,-0.78045 0.873,-1.46133 0,-45.61966 0,-91.23932 0,-136.85898 -0.3858,-0.29477 -0.6345,-0.91518 -1.1875,-0.90234 z" />
    <path
       id="path960"
       style="font-style:normal;font-weight:400;font-size:31.75px;font-family:'Sans Serif';fill:none;stroke:#0000ff;stroke-width:7;stroke-linecap:round;stroke-linejoin:bevel;stroke-opacity:1"
       d="m 2413.4785,553.00391 c -5.8192,0.0684 -11.6501,0.01 -17.4738,0.0293 -39.8876,0 -79.7753,0 -119.6629,0 -0.3836,0.44989 -1.0719,0.7736 -0.8672,1.46719 -0.029,2.66046 0.057,5.33813 -0.043,7.98789 -0.5225,0.90787 -1.692,0.42868 -2.5257,0.54492 -27.2362,0 -54.4724,0 -81.7086,0 -0.3774,0.42573 -1.0888,0.78045 -0.8731,1.46133 0,48.953 0,97.90599 0,146.85899 0.4257,0.37741 0.7805,1.0888 1.4613,0.87304 22.386,0 44.7719,0 67.1579,0 0.3774,-0.42572 1.0888,-0.78045 0.873,-1.46133 0,-5.95104 0,-11.90208 0,-17.85312 0.3166,-0.98161 1.4999,-0.63396 2.2688,-0.68555 55.8511,0 111.7023,0 167.5535,0 0.9816,0.31662 0.6339,1.4999 0.6855,2.26875 0,5.6194 0,11.2388 0,16.85821 0.4257,0.37741 0.7805,1.0888 1.4613,0.87304 22.386,0 44.7719,0 67.1579,0 0.3774,-0.42572 1.0888,-0.78045 0.873,-1.46133 0,-48.95299 0,-97.90599 0,-146.85898 -0.4257,-0.37741 -0.7804,-1.0888 -1.4613,-0.87305 -27.6679,0 -55.3357,0 -83.0035,0 -0.9816,-0.31662 -0.634,-1.4999 -0.6856,-2.26875 0,-2.28606 0,-4.57213 0,-6.8582 -0.3857,-0.29477 -0.6345,-0.91518 -1.1875,-0.90234 z" />
    <path
       id="path1032"
       style="font-style:normal;font-weight:400;font-size:31.75px;font-family:'Sans Serif';fill:none;stroke:#0000ff;stroke-width:7;stroke-linecap:round;stroke-linejoin:bevel;stroke-opacity:1"
       d="m 532.28906,362.50391 c -5.81918,0.0684 -11.65012,0.01 -17.47383,0.0293 -39.88828,0 -79.77656,0 -119.66484,0 -0.38365,0.44989 -1.0719,0.7736 -0.86719,1.46719 0,45.61771 0,91.23542 0,136.85313 0.42573,0.37741 0.78045,1.0888 1.46133,0.87304 45.61966,0 91.23932,0 136.85899,0 0.37741,-0.42572 1.0888,-0.78045 0.87304,-1.46133 0,-45.61966 0,-91.23932 0,-136.85898 -0.38576,-0.29477 -0.63446,-0.91518 -1.1875,-0.90234 z" />
    <path
       id="path1096"
       style="font-style:normal;font-weight:400;font-size:31.75px;font-family:'Sans Serif';fill:none;stroke:#0000ff;stroke-width:7;stroke-linecap:round;stroke-linejoin:bevel;stroke-opacity:1"
       d="m 1294.2891,362.50391 c -5.8192,0.0684 -11.6502,0.01 -17.4739,0.0293 -39.8882,0 -79.7765,0 -119.6648,0 -0.3837,0.44989 -1.0719,0.7736 -0.8672,1.46719 0,45.61771 0,91.23542 0,136.85313 0.4257,0.37741 0.7805,1.0888 1.4613,0.87304 45.6197,0 91.2394,0 136.859,0 0.3774,-0.42572 1.0888,-0.78045 0.8731,-1.46133 0,-45.61966 0,-91.23932 0,-136.85898 -0.3858,-0.29477 -0.6345,-0.91518 -1.1875,-0.90234 z" />
  </g>
  <g
     inkscape:groupmode="layer"
     id="layer5"
     inkscape:label="keys_3"
     style="display:inline">
    <path
       id="path372"
       style="font-style:normal;font-weight:400;font-size:31.75px;font-family:'Sans Serif';fill:none;stroke:#0000ff;stroke-width:7;stroke-linecap:round;stroke-linejoin:bevel;stroke-opacity:1"
       d="m 484.66406,934.00391 c -5.81918,0.0684 -11.65012,0.01 -17.47383,0.0293 -39.88828,0 -79.77656,0 -119.66484,0 -0.38365,0.44989 -1.0719,0.7736 -0.86719,1.46719 0,45.61771 0,91.2354 0,136.8531 0.42573,0.3774 0.78045,1.0888 1.46133,0.8731 45.61966,0 91.23932,0 136.85899,0 0.37741,-0.4258 1.0888,-0.7805 0.87304,-1.4614 0,-45.6196 0,-91.23928 0,-136.85894 -0.38576,-0.29477 -0.63446,-0.91518 -1.1875,-0.90234 z" />
    <path
       id="path544"
       style="font-style:normal;font-weight:400;font-size:31.75px;font-family:'Sans Serif';fill:none;stroke:#0000ff;stroke-width:7;stroke-linecap:round;stroke-linejoin:bevel;stroke-opacity:1"
       d="m 317.97852,553.00391 c -5.81919,0.0684 -11.65013,0.01 -17.47383,0.0293 -55.76459,0 -111.52917,0 -167.29375,0 -0.38365,0.44989 -1.0719,0.7736 -0.86719,1.46719 0,45.61771 0,91.23542 0,136.85313 0.42572,0.37741 0.78045,1.0888 1.46133,0.87304 61.49596,0 122.99193,0 184.48789,0 0.37741,-0.42572 1.0888,-0.78045 0.87305,-1.46133 0,-45.61966 0,-91.23932 0,-136.85898 -0.38577,-0.29477 -0.63447,-0.91518 -1.1875,-0.90234 z" />
    <path
       id="path608"
       style="font-style:normal;font-weight:400;font-size:31.75px;font-family:'Sans Serif';fill:none;stroke:#0000ff;stroke-width:7;stroke-linecap:round;stroke-linejoin:bevel;stroke-opacity:1"
       d="m 1246.6582,743.50391 c -5.8192,0.0684 -11.6501,0.01 -17.4738,0.0293 -39.8877,0 -79.7753,0 -119.6629,0 -0.3837,0.44989 -1.0719,0.7736 -0.8672,1.46719 0,45.61771 0,91.23542 0,136.85313 0.4257,0.37741 0.7804,1.0888 1.4613,0.87304 45.619,0 91.238,0 136.8571,0 0.3774,-0.42572 1.0888,-0.78045 0.873,-1.46133 0,-45.61966 0,-91.23932 0,-136.85898 -0.3858,-0.29477 -0.6345,-0.91518 -1.1875,-0.90234 z" />
    <path
       id="path624"
       style="font-style:normal;font-weight:400;font-size:31.75px;font-family:'Sans Serif';fill:none;stroke:#0000ff;stroke-width:7;stroke-linecap:round;stroke-linejoin:bevel;stroke-opacity:1"
       d="m 770.41406,553.00391 c -5.81918,0.0684 -11.65012,0.01 -17.47383,0.0293 -39.88828,0 -79.77656,0 -119.66484,0 -0.38365,0.44989 -1.0719,0.7736 -0.86719,1.46719 0,45.61771 0,91.23542 0,136.85313 0.42573,0.37741 0.78045,1.0888 1.46133,0.87304 45.61966,0 91.23932,0 136.85899,0 0.37741,-0.42572 1.0888,-0.78045 0.87304,-1.46133 0,-45.61966 0,-91.23932 0,-136.85898 -0.38576,-0.29477 -0.63446,-0.91518 -1.1875,-0.90234 z" />
    <path
       id="path768"
       style="font-style:normal;font-weight:400;font-size:31.75px;font-family:'Sans Serif';fill:none;stroke:#0000ff;stroke-width:7;stroke-linecap:round;stroke-linejoin:bevel;stroke-opacity:1"
       d="m 2294.4082,934.00391 c -5.8192,0.0684 -11.6501,0.01 -17.4738,0.0293 -39.8844,0 -79.7688,0 -119.6532,0 -0.3836,0.44989 -1.0719,0.7736 -0.8671,1.46719 0,45.61771 0,91.2354 0,136.8531 0.4257,0.3774 0.7804,1.0888 1.4613,0.8731 45.6157,0 91.2315,0 136.8473,0 0.3774,-0.4258 1.0888,-0.7805 0.873,-1.4614 0,-45.6196 0,-91.23928 0,-136.85894 -0.3858,-0.29477 -0.6345,-0.91518 -1.1875,-0.90234 z" />
    <path
       id="path832"
       style="font-style:normal;font-weight:400;font-size:31.75px;font-family:'Sans Serif';fill:none;stroke:#0000ff;stroke-width:7;stroke-linecap:round;stroke-linejoin:bevel;stroke-opacity:1"
       d="m 1818.1582,743.50391 c -5.8192,0.0684 -11.6501,0.01 -17.4738,0.0293 -39.8877,0 -79.7753,0 -119.6629,0 -0.3837,0.44989 -1.0719,0.7736 -0.8672,1.46719 0,45.61771 0,91.23542 0,136.85313 0.4257,0.37741 0.7804,1.0888 1.4613,0.87304 45.619,0 91.238,0 136.8571,0 0.3774,-0.42572 1.0888,-0.78045 0.873,-1.46133 0,-45.61966 0,-91.23932 0,-136.85898 -0.3858,-0.29477 -0.6345,-0.91518 -1.1875,-0.90234 z" />
    <path
       id="path1080"
       style="font-style:normal;font-weight:400;font-size:31.75px;font-family:'Sans Serif';fill:none;stroke:#0000ff;stroke-width:7;stroke-linecap:round;stroke-linejoin:bevel;stroke-opacity:1"
       d="m 1103.7891,362.50391 c -5.8192,0.0684 -11.6502,0.01 -17.4739,0.0293 -39.8882,0 -79.7765,0 -119.66481,0 -0.38365,0.44989 -1.0719,0.7736 -0.86719,1.46719 0,45.61771 0,91.23542 0,136.85313 0.42573,0.37741 0.78045,1.0888 1.46133,0.87304 45.61967,0 91.23937,0 136.85897,0 0.3774,-0.42572 1.0888,-0.78045 0.8731,-1.46133 0,-45.61966 0,-91.23932 0,-136.85898 -0.3858,-0.29477 -0.6345,-0.91518 -1.1875,-0.90234 z" />
    <path
       id="path1136"
       style="font-style:normal;font-weight:400;font-size:31.75px;font-family:'Sans Serif';fill:none;stroke:#0000ff;stroke-width:7;stroke-linecap:round;stroke-linejoin:bevel;stroke-opacity:1"
       d="m 1675.2891,362.50391 c -5.8192,0.0684 -11.6502,0.01 -17.4739,0.0293 -39.8882,0 -79.7765,0 -119.6648,0 -0.3837,0.44989 -1.0719,0.7736 -0.8672,1.46719 0,45.61771 0,91.23542 0,136.85313 0.4257,0.37741 0.7805,1.0888 1.4613,0.87304 45.6197,0 91.2394,0 136.859,0 0.3774,-0.42572 1.0888,-0.78045 0.8731,-1.46133 0,-45.61966 0,-91.23932 0,-136.85898 -0.3858,-0.29477 -0.6345,-0.91518 -1.1875,-0.90234 z" />
  </g>
  <g
     inkscape:groupmode="layer"
     id="layer6"
     inkscape:label="keys_4"
     style="display:inline">
    <path
       id="path528"
       style="font-style:normal;font-weight:400;font-size:31.75px;font-family:'Sans Serif';fill:none;stroke:#0000ff;stroke-width:7;stroke-linecap:round;stroke-linejoin:bevel;stroke-opacity:1"
       d="m 675.16406,743.50391 c -5.81918,0.0684 -11.65012,0.01 -17.47383,0.0293 -39.88828,0 -79.77656,0 -119.66484,0 -0.38365,0.44989 -1.0719,0.7736 -0.86719,1.46719 0,45.61771 0,91.23542 0,136.85313 0.42573,0.37741 0.78045,1.0888 1.46133,0.87304 45.61966,0 91.23932,0 136.85899,0 0.37741,-0.42572 1.0888,-0.78045 0.87304,-1.46133 0,-45.61966 0,-91.23932 0,-136.85898 -0.38576,-0.29477 -0.63446,-0.91518 -1.1875,-0.90234 z" />
    <path
       id="path640"
       style="font-style:normal;font-weight:400;font-size:31.75px;font-family:'Sans Serif';fill:none;stroke:#0000ff;stroke-width:7;stroke-linecap:round;stroke-linejoin:bevel;stroke-opacity:1"
       d="m 960.9082,553.00391 c -5.81918,0.0684 -11.65012,0.01 -17.47382,0.0293 -39.88633,0 -79.77266,0 -119.65899,0 -0.38365,0.44989 -1.0719,0.7736 -0.86719,1.46719 0,45.61771 0,91.23542 0,136.85313 0.42573,0.37741 0.78045,1.0888 1.46133,0.87304 45.61771,0 91.23542,0 136.85313,0 0.37741,-0.42572 1.0888,-0.78045 0.87304,-1.46133 0,-45.61966 0,-91.23932 0,-136.85898 -0.38576,-0.29477 -0.63446,-0.91518 -1.1875,-0.90234 z" />
    <path
       id="path692"
       style="font-style:normal;font-weight:400;font-size:31.75px;font-family:'Sans Serif';fill:none;stroke:#0000ff;stroke-width:7;stroke-linecap:round;stroke-linejoin:bevel;stroke-opacity:1"
       d="m 1544.248,914.00391 c -5.8191,0.0684 -11.6501,0.01 -17.4738,0.0293 -16.6545,0 -33.3091,0 -49.9637,0 -0.3836,0.44989 -1.0719,0.7736 -0.8671,1.46719 0,48.95104 0,97.9021 0,146.8531 0.4257,0.3774 0.7804,1.0888 1.4613,0.8731 27.6678,0 55.3357,0 83.0035,0 0.9816,0.3166 0.634,1.4999 0.6856,2.2687 0,2.2861 0,4.5721 0,6.8582 0.4257,0.3774 0.7804,1.0888 1.4613,0.8731 45.619,0 91.238,0 136.857,0 0.3774,-0.4258 1.0888,-0.7805 0.8731,-1.4614 0.029,-2.6624 -0.058,-5.342 0.043,-7.9937 0.5226,-0.9079 1.692,-0.4287 2.5258,-0.5449 42.7798,0 85.5596,0 128.3395,0 0.3774,-0.4258 1.0888,-0.7805 0.873,-1.4614 0,-48.953 0,-97.90595 0,-146.85894 -0.4257,-0.37741 -0.7804,-1.0888 -1.4613,-0.87305 -37.9296,0 -75.8591,0 -113.7887,0 -0.3774,0.42573 -1.0888,0.78045 -0.873,1.46133 0,5.95104 0,11.90208 0,17.85313 -0.3167,0.98161 -1.4999,0.63395 -2.2688,0.68554 -55.8512,0 -111.7023,0 -167.5535,0 -0.9816,-0.31662 -0.634,-1.4999 -0.6856,-2.26875 0,-5.6194 0,-11.2388 0,-16.8582 -0.3857,-0.29477 -0.6344,-0.91518 -1.1875,-0.90234 z" />
    <path
       id="path880"
       style="font-style:normal;font-weight:400;font-size:31.75px;font-family:'Sans Serif';fill:none;stroke:#0000ff;stroke-width:7;stroke-linecap:round;stroke-linejoin:bevel;stroke-opacity:1"
       d="m 1722.9082,553.00391 c -5.8192,0.0684 -11.6501,0.01 -17.4738,0.0293 -39.8877,0 -79.7753,0 -119.6629,0 -0.3837,0.44989 -1.0719,0.7736 -0.8672,1.46719 0,45.61771 0,91.23542 0,136.85313 0.4257,0.37741 0.7804,1.0888 1.4613,0.87304 45.619,0 91.238,0 136.8571,0 0.3774,-0.42572 1.0888,-0.78045 0.873,-1.46133 0,-45.61966 0,-91.23932 0,-136.85898 -0.3858,-0.29477 -0.6345,-0.91518 -1.1875,-0.90234 z" />
    <path
       id="path912"
       style="font-style:normal;font-weight:400;font-size:31.75px;font-family:'Sans Serif';fill:none;stroke:#0000ff;stroke-width:7;stroke-linecap:round;stroke-linejoin:bevel;stroke-opacity:1"
       d="m 2199.1582,743.50391 c -5.8192,0.0684 -11.6501,0.01 -17.4738,0.0293 -39.8844,0 -79.7688,0 -119.6532,0 -0.3836,0.44989 -1.0719,0.7736 -0.8671,1.46719 0,45.61771 0,91.23542 0,136.85313 0.4257,0.37741 0.7804,1.0888 1.4613,0.87304 45.6157,0 91.2315,0 136.8473,0 0.3774,-0.42572 1.0888,-0.78045 0.873,-1.46133 0,-45.61966 0,-91.23932 0,-136.85898 -0.3858,-0.29477 -0.6345,-0.91518 -1.1875,-0.90234 z" />
    <path
       id="path1200"
       style="font-style:normal;font-weight:400;font-size:31.75px;font-family:'Sans Serif';fill:none;stroke:#0000ff;stroke-width:7;stroke-linecap:round;stroke-linejoin:bevel;stroke-opacity:1"
       d="m 2484.918,362.50391 c -5.8192,0.0684 -11.6502,0.01 -17.4739,0.0293 -39.8876,0 -79.7752,0 -119.6629,0 -0.3836,0.44989 -1.0719,0.7736 -0.8671,1.46719 0,45.61771 0,91.23542 0,136.85313 0.4257,0.37741 0.7804,1.0888 1.4613,0.87304 45.619,0 91.238,0 136.857,0 0.3774,-0.42572 1.0888,-0.78045 0.8731,-1.46133 0,-45.61966 0,-91.23932 0,-136.85898 -0.3858,-0.29477 -0.6345,-0.91518 -1.1875,-0.90234 z" />
  </g>
  <g
     inkscape:groupmode="layer"
     id="layer7"
     inkscape:label="keys_5"
     style="display:inline">
    <path
       id="path356"
       style="font-style:normal;font-weight:400;font-size:31.75px;font-family:'Sans Serif';fill:none;stroke:#0000ff;stroke-width:7;stroke-linecap:round;stroke-linejoin:bevel;stroke-opacity:1"
       d="m 270.34766,934.00391 c -5.81919,0.0684 -11.65013,0.01 -17.47383,0.0293 -39.88763,0 -79.77526,0 -119.66289,0 -0.38365,0.44989 -1.0719,0.7736 -0.86719,1.46719 0,45.61771 0,91.2354 0,136.8531 0.42572,0.3774 0.78045,1.0888 1.46133,0.8731 45.61901,0 91.23802,0 136.85703,0 0.37741,-0.4258 1.0888,-0.7805 0.87305,-1.4614 0,-45.6196 0,-91.23928 0,-136.85894 -0.38576,-0.29477 -0.63447,-0.91518 -1.1875,-0.90234 z" />
    <path
       id="path408"
       style="font-style:normal;font-weight:400;font-size:31.75px;font-family:'Sans Serif';fill:none;stroke:#0000ff;stroke-width:7;stroke-linecap:round;stroke-linejoin:bevel;stroke-opacity:1"
       d="m 877.49805,914.00391 c -5.81919,0.0684 -11.65013,0.01 -17.47383,0.0293 -32.19557,0 -64.39115,0 -96.58672,0 -0.38365,0.44989 -1.0719,0.7736 -0.86719,1.46719 0,48.95104 0,97.9021 0,146.8531 0.42573,0.3774 0.78045,1.0888 1.46133,0.8731 43.20885,0 86.41771,0 129.62656,0 0.98161,0.3166 0.63396,1.4999 0.68555,2.2687 0,2.2861 0,4.5721 0,6.8582 0.42572,0.3774 0.78045,1.0888 1.46133,0.8731 45.61901,0 91.23802,0 136.85702,0 0.3774,-0.4258 1.0888,-0.7805 0.8731,-1.4614 0.029,-2.6624 -0.058,-5.342 0.043,-7.9937 0.5226,-0.9079 1.692,-0.4287 2.5258,-0.5449 27.2362,0 54.4724,0 81.7086,0 0.3774,-0.4258 1.0888,-0.7805 0.873,-1.4614 0,-48.953 0,-97.90595 0,-146.85894 -0.4257,-0.37741 -0.7804,-1.0888 -1.4613,-0.87305 -22.3859,0 -44.7719,0 -67.1578,0 -0.3774,0.42573 -1.0888,0.78045 -0.873,1.46133 0,5.95104 0,11.90208 0,17.85313 -0.3167,0.98161 -1.4999,0.63395 -2.2688,0.68554 -55.85116,0 -111.70233,0 -167.55351,0 -0.98161,-0.31662 -0.63395,-1.4999 -0.68554,-2.26875 0,-5.6194 0,-11.2388 0,-16.8582 -0.38576,-0.29477 -0.63447,-0.91518 -1.1875,-0.90234 z" />
    <path
       id="path672"
       style="font-style:normal;font-weight:400;font-size:31.75px;font-family:'Sans Serif';fill:none;stroke:#0000ff;stroke-width:7;stroke-linecap:round;stroke-linejoin:bevel;stroke-opacity:1"
       d="m 1341.9082,553.00391 c -5.8192,0.0684 -11.6501,0.01 -17.4738,0.0293 -39.8877,0 -79.7753,0 -119.6629,0 -0.3837,0.44989 -1.0719,0.7736 -0.8672,1.46719 0,45.61771 0,91.23542 0,136.85313 0.4257,0.37741 0.7804,1.0888 1.4613,0.87304 45.619,0 91.238,0 136.8571,0 0.3774,-0.42572 1.0888,-0.78045 0.873,-1.46133 0,-45.61966 0,-91.23932 0,-136.85898 -0.3858,-0.29477 -0.6345,-0.91518 -1.1875,-0.90234 z" />
    <path
       id="path784"
       style="font-style:normal;font-weight:400;font-size:31.75px;font-family:'Sans Serif';fill:none;stroke:#0000ff;stroke-width:7;stroke-linecap:round;stroke-linejoin:bevel;stroke-opacity:1"
       d="m 2508.7285,934.00391 c -5.8192,0.0684 -11.6501,0.01 -17.4738,0.0293 -39.8876,0 -79.7753,0 -119.6629,0 -0.3836,0.44989 -1.0719,0.7736 -0.8672,1.46719 0,45.61771 0,91.2354 0,136.8531 0.4257,0.3774 0.7805,1.0888 1.4613,0.8731 45.619,0 91.2381,0 136.8571,0 0.3774,-0.4258 1.0888,-0.7805 0.873,-1.4614 0,-45.6196 0,-91.23928 0,-136.85894 -0.3857,-0.29477 -0.6345,-0.91518 -1.1875,-0.90234 z" />
    <path
       id="path1016"
       style="font-style:normal;font-weight:400;font-size:31.75px;font-family:'Sans Serif';fill:none;stroke:#0000ff;stroke-width:7;stroke-linecap:round;stroke-linejoin:bevel;stroke-opacity:1"
       d="m 294.16797,362.50391 c -5.81919,0.0684 -11.65013,0.01 -17.47383,0.0293 -39.88763,0 -79.77526,0 -119.66289,0 -0.38365,0.44989 -1.0719,0.7736 -0.86719,1.46719 0,45.61771 0,91.23542 0,136.85313 0.42573,0.37741 0.78045,1.0888 1.46133,0.87304 45.61901,0 91.23802,0 136.85703,0 0.37742,-0.42572 1.08881,-0.78045 0.87305,-1.46133 0,-45.61966 0,-91.23932 0,-136.85898 -0.38576,-0.29477 -0.63447,-0.91518 -1.1875,-0.90234 z" />
    <path
       id="path1048"
       style="font-style:normal;font-weight:400;font-size:31.75px;font-family:'Sans Serif';fill:none;stroke:#0000ff;stroke-width:7;stroke-linecap:round;stroke-linejoin:bevel;stroke-opacity:1"
       d="m 722.78906,362.50391 c -5.81918,0.0684 -11.65012,0.01 -17.47383,0.0293 -39.88828,0 -79.77656,0 -119.66484,0 -0.38365,0.44989 -1.0719,0.7736 -0.86719,1.46719 0,45.61771 0,91.23542 0,136.85313 0.42573,0.37741 0.78045,1.0888 1.46133,0.87304 45.61966,0 91.23932,0 136.85899,0 0.37741,-0.42572 1.0888,-0.78045 0.87304,-1.46133 0,-45.61966 0,-91.23932 0,-136.85898 -0.38576,-0.29477 -0.63446,-0.91518 -1.1875,-0.90234 z" />
    <path
       id="path1168"
       style="font-style:normal;font-weight:400;font-size:31.75px;font-family:'Sans Serif';fill:none;stroke:#0000ff;stroke-width:7;stroke-linecap:round;stroke-linejoin:bevel;stroke-opacity:1"
       d="m 2056.2891,362.50391 c -5.8192,0.0684 -11.6502,0.01 -17.4739,0.0293 -39.8882,0 -79.7765,0 -119.6648,0 -0.3837,0.44989 -1.0719,0.7736 -0.8672,1.46719 0,45.61771 0,91.23542 0,136.85313 0.4257,0.37741 0.7805,1.0888 1.4613,0.87304 45.6197,0 91.2394,0 136.859,0 0.3774,-0.42572 1.0888,-0.78045 0.8731,-1.46133 0,-45.61966 0,-91.23932 0,-136.85898 -0.3858,-0.29477 -0.6345,-0.91518 -1.1875,-0.90234 z" />
  </g>
  <g
     inkscape:groupmode="layer"
     id="layer1"
     inkscape:label="holes"
     style="display:inline">
    <path
       vector-effect="none"
       d="m 58.69,1138.57 c 0,8.55 -6.94,15.49 -15.5,15.49 -8.55,0 -15.49,-6.94 -15.49,-15.49 0,-8.56 6.94,-15.5 15.49,-15.5 8.56,0 15.5,6.94 15.5,15.5 z"
       fill-rule="evenodd"
       id="path352"
       style="font-style:normal;font-weight:400;font-size:31.75px;font-family:'Sans Serif';fill:none;stroke:#0000ff;stroke-width:7;stroke-linecap:round;stroke-linejoin:bevel;stroke-opacity:1" />
    <path
       vector-effect="none"
       d="m 910.64,1138.57 c 0,8.55 -6.93,15.49 -15.49,15.49 -8.56,0 -15.49,-6.94 -15.49,-15.49 0,-8.56 6.93,-15.5 15.49,-15.5 8.56,0 15.49,6.94 15.49,15.5 z"
       fill-rule="evenodd"
       id="path404"
       style="font-style:normal;font-weight:400;font-size:31.75px;font-family:'Sans Serif';fill:none;stroke:#0000ff;stroke-width:7;stroke-linecap:round;stroke-linejoin:bevel;stroke-opacity:1" />
    <path
       vector-effect="none"
       d="m 1762.6,1138.57 c 0,8.55 -6.93,15.49 -15.49,15.49 -8.56,0 -15.49,-6.94 -15.49,-15.49 0,-8.56 6.93,-15.5 15.49,-15.5 8.56,0 15.49,6.94 15.49,15.5 z"
       fill-rule="evenodd"
       id="path688"
       style="font-style:normal;font-weight:400;font-size:31.75px;font-family:'Sans Serif';fill:none;stroke:#0000ff;stroke-width:7;stroke-linecap:round;stroke-linejoin:bevel;stroke-opacity:1" />
    <path
       vector-effect="none"
       d="m 2614.56,1138.57 c 0,8.55 -6.94,15.49 -15.49,15.49 -8.56,0 -15.5,-6.94 -15.5,-15.49 0,-8.56 6.94,-15.5 15.5,-15.5 8.55,0 15.49,6.94 15.49,15.5 z"
       fill-rule="evenodd"
       id="path748"
       style="font-style:normal;font-weight:400;font-size:31.75px;font-family:'Sans Serif';fill:none;stroke:#0000ff;stroke-width:7;stroke-linecap:round;stroke-linejoin:bevel;stroke-opacity:1" />
    <path
       vector-effect="none"
       d="m 58.69,43.19 c 0,8.56 -6.94,15.5 -15.5,15.5 -8.55,0 -15.49,-6.94 -15.49,-15.5 0,-8.56 6.94,-15.49 15.49,-15.49 8.56,0 15.5,6.93 15.5,15.49 z"
       fill-rule="evenodd"
       id="path1112"
       style="font-style:normal;font-weight:400;font-size:31.75px;font-family:'Sans Serif';fill:none;stroke:#0000ff;stroke-width:7;stroke-linecap:round;stroke-linejoin:bevel;stroke-opacity:1" />
    <path
       vector-effect="none"
       d="m 910.64,43.19 c 0,8.56 -6.93,15.5 -15.49,15.5 -8.56,0 -15.49,-6.94 -15.49,-15.5 0,-8.56 6.93,-15.49 15.49,-15.49 8.56,0 15.49,6.93 15.49,15.49 z"
       fill-rule="evenodd"
       id="path1116"
       style="font-style:normal;font-weight:400;font-size:31.75px;font-family:'Sans Serif';fill:none;stroke:#0000ff;stroke-width:7;stroke-linecap:round;stroke-linejoin:bevel;stroke-opacity:1" />
    <path
       vector-effect="none"
       d="m 1762.6,43.19 c 0,8.56 -6.93,15.5 -15.49,15.5 -8.56,0 -15.49,-6.94 -15.49,-15.5 0,-8.56 6.93,-15.49 15.49,-15.49 8.56,0 15.49,6.93 15.49,15.49 z"
       fill-rule="evenodd"
       id="path1216"
       style="font-style:normal;font-weight:400;font-size:31.75px;font-family:'Sans Serif';fill:none;stroke:#0000ff;stroke-width:7;stroke-linecap:round;stroke-linejoin:bevel;stroke-opacity:1" />
    <path
       vector-effect="none"
       d="m 2002.8,260.68 c 0,11.05 -8.95,20 -20,20 -11.05,0 -20,-8.95 -20,-20 0,-11.05 8.95,-20 20,-20 11.05,0 20,8.95 20,20 z"
       fill-rule="evenodd"
       id="path1220"
       style="font-style:normal;font-weight:400;font-size:31.75px;font-family:'Sans Serif';fill:none;stroke:#0000ff;stroke-width:7;stroke-linecap:round;stroke-linejoin:bevel;stroke-opacity:1" />
    <path
       vector-effect="none"
       d="m 2002.8,197.18 c 0,11.05 -8.95,20 -20,20 -11.05,0 -20,-8.95 -20,-20 0,-11.05 8.95,-20 20,-20 11.05,0 20,8.95 20,20 z"
       fill-rule="evenodd"
       id="path1224"
       style="font-style:normal;font-weight:400;font-size:31.75px;font-family:'Sans Serif';fill:none;stroke:#0000ff;stroke-width:7;stroke-linecap:round;stroke-linejoin:bevel;stroke-opacity:1" />
    <path
       vector-effect="none"
       d="m 2002.8,133.68 c 0,11.05 -8.95,20 -20,20 -11.05,0 -20,-8.95 -20,-20 0,-11.05 8.95,-20 20,-20 11.05,0 20,8.95 20,20 z"
       fill-rule="evenodd"
       id="path1228"
       style="font-style:normal;font-weight:400;font-size:31.75px;font-family:'Sans Serif';fill:none;stroke:#0000ff;stroke-width:7;stroke-linecap:round;stroke-linejoin:bevel;stroke-opacity:1" />
    <path
       vector-effect="none"
       d="m 2614.56,43.19 c 0,8.56 -6.94,15.5 -15.49,15.5 -8.56,0 -15.5,-6.94 -15.5,-15.5 0,-8.56 6.94,-15.49 15.5,-15.49 8.55,0 15.49,6.93 15.49,15.49 z"
       fill-rule="evenodd"
       id="path1232"
       style="font-style:normal;font-weight:400;font-size:31.75px;font-family:'Sans Serif';fill:none;stroke:#0000ff;stroke-width:7;stroke-linecap:round;stroke-linejoin:bevel;stroke-opacity:1" />
    <path
       vector-effect="none"
       d="m 575.005,133.68 v 127 0 c 0,28.06 -22.744,50.8 -50.8,50.8 v 0 H 133.68 v 0 c -28.06,0 -50.8,-22.74 -50.8,-50.8 v 0 -127 0 c 0,-28.06 22.74,-50.8 50.8,-50.8 v 0 h 390.525 v 0 c 28.056,0 50.8,22.74 50.8,50.8 z"
       fill-rule="evenodd"
       id="path1236"
       style="font-style:normal;font-weight:400;font-size:31.75px;font-family:'Sans Serif';fill:none;stroke:#0000ff;stroke-width:7;stroke-linecap:round;stroke-linejoin:bevel;stroke-opacity:1" />
  </g>
</svg>
